<mxfile host="app.diagrams.net" modified="2020-11-24T00:28:35.215Z" agent="5.0 (Windows NT 10.0; Win64; x64) AppleWebKit/537.36 (KHTML, like Gecko) Chrome/86.0.4240.111 Safari/537.36 OPR/72.0.3815.186" etag="faCpjHxkPraM0y4EssWM" version="13.8.9-1" type="github">
  <diagram id="e_x4GT-BARfFQcShhRyy" name="Page-1">
    <mxGraphModel dx="1068" dy="462" grid="1" gridSize="10" guides="1" tooltips="1" connect="1" arrows="1" fold="1" page="1" pageScale="1" pageWidth="827" pageHeight="1169" math="0" shadow="0">
      <root>
        <mxCell id="0" />
        <mxCell id="1" parent="0" />
        <mxCell id="9rl9llqvB4m3HFqRYRUV-3" style="edgeStyle=orthogonalEdgeStyle;rounded=0;orthogonalLoop=1;jettySize=auto;html=1;exitX=0.5;exitY=1;exitDx=0;exitDy=0;entryX=0.5;entryY=0;entryDx=0;entryDy=0;" edge="1" parent="1" source="9rl9llqvB4m3HFqRYRUV-1" target="9rl9llqvB4m3HFqRYRUV-2">
          <mxGeometry relative="1" as="geometry" />
        </mxCell>
        <mxCell id="9rl9llqvB4m3HFqRYRUV-1" value="inicio" style="ellipse;whiteSpace=wrap;html=1;aspect=fixed;" vertex="1" parent="1">
          <mxGeometry x="120" y="40" width="80" height="80" as="geometry" />
        </mxCell>
        <mxCell id="9rl9llqvB4m3HFqRYRUV-2" value="cal1=0.0&lt;br&gt;cal2=0.0&lt;br&gt;cal3=0.0&lt;br&gt;cal4=0.0&lt;br&gt;cal5=0.0&lt;br&gt;cal6=0.0&lt;br&gt;cal7=0.0&lt;br&gt;cal8=0.0&lt;br&gt;cal9=0.0&lt;br&gt;cal10=0.0&lt;br&gt;calpro=0.0&lt;br&gt;numa=0&lt;br&gt;numr=0" style="rounded=0;whiteSpace=wrap;html=1;" vertex="1" parent="1">
          <mxGeometry x="115" y="150" width="85" height="190" as="geometry" />
        </mxCell>
      </root>
    </mxGraphModel>
  </diagram>
</mxfile>
